<svg width="100" height="60" viewBox="0 0 100 60" fill="none" xmlns="http://www.w3.org/2000/svg">
<path d="M25.44 59.12C20.64 59.12 16.3733 57.9733 12.64 55.68C8.96 53.3867 6.05333 50.08 3.92 45.76C1.78667 41.44 0.72 36.1867 0.72 30C0.72 23.8133 1.78667 18.56 3.92 14.24C6.05333 9.92 8.96 6.61333 12.64 4.32C16.3733 2.02666 20.64 0.879996 25.44 0.879996C30.1867 0.879996 34.4 2.02666 38.08 4.32C41.8133 6.61333 44.7467 9.92 46.88 14.24C49.0133 18.56 50.08 23.8133 50.08 30C50.08 36.1867 49.0133 41.44 46.88 45.76C44.7467 50.08 41.8133 53.3867 38.08 55.68C34.4 57.9733 30.1867 59.12 25.44 59.12ZM25.44 46.16C27.1467 46.16 28.64 45.6267 29.92 44.56C31.2533 43.4933 32.2933 41.7867 33.04 39.44C33.7867 37.04 34.16 33.8933 34.16 30C34.16 26.0533 33.7867 22.9067 33.04 20.56C32.2933 18.2133 31.2533 16.5067 29.92 15.44C28.64 14.3733 27.1467 13.84 25.44 13.84C23.7333 13.84 22.2133 14.3733 20.88 15.44C19.6 16.5067 18.56 18.2133 17.76 20.56C17.0133 22.9067 16.64 26.0533 16.64 30C16.64 33.8933 17.0133 37.04 17.76 39.44C18.56 41.7867 19.6 43.4933 20.88 44.56C22.2133 45.6267 23.7333 46.16 25.44 46.16ZM75.0856 59.12C71.2456 59.12 67.379 58.64 63.4856 57.68C59.5923 56.72 56.2323 55.36 53.4056 53.6L59.0856 41.68C61.379 43.1733 63.859 44.32 66.5256 45.12C69.2456 45.92 71.939 46.32 74.6056 46.32C77.2723 46.32 79.4323 45.8133 81.0856 44.8C82.739 43.7333 83.5656 42.2667 83.5656 40.4C83.5656 39.28 83.2456 38.2933 82.6056 37.44C81.9656 36.5333 80.8723 35.8667 79.3256 35.44C77.779 34.96 75.5656 34.72 72.6856 34.72H57.4856L60.2856 2H95.9656V14.24H65.8856L73.9656 7.28L72.1256 29.36L64.0456 22.4H76.4456C81.9923 22.4 86.4456 23.2 89.8056 24.8C93.1656 26.3467 95.619 28.4533 97.1656 31.12C98.7123 33.7333 99.4856 36.6933 99.4856 40C99.4856 43.3067 98.6056 46.4267 96.8456 49.36C95.139 52.24 92.499 54.5867 88.9256 56.4C85.3523 58.2133 80.739 59.12 75.0856 59.12Z" fill="#1178B2" fill-opacity="0.5"/>
</svg>
