<svg width="104" height="60" viewBox="0 0 104 60" fill="none" xmlns="http://www.w3.org/2000/svg">
<path d="M25.44 59.12C20.64 59.12 16.3733 57.9733 12.64 55.68C8.96 53.3867 6.05333 50.08 3.92 45.76C1.78667 41.44 0.72 36.1867 0.72 30C0.72 23.8133 1.78667 18.56 3.92 14.24C6.05333 9.92 8.96 6.61333 12.64 4.32C16.3733 2.02666 20.64 0.879996 25.44 0.879996C30.1867 0.879996 34.4 2.02666 38.08 4.32C41.8133 6.61333 44.7467 9.92 46.88 14.24C49.0133 18.56 50.08 23.8133 50.08 30C50.08 36.1867 49.0133 41.44 46.88 45.76C44.7467 50.08 41.8133 53.3867 38.08 55.68C34.4 57.9733 30.1867 59.12 25.44 59.12ZM25.44 46.16C27.1467 46.16 28.64 45.6267 29.92 44.56C31.2533 43.4933 32.2933 41.7867 33.04 39.44C33.7867 37.04 34.16 33.8933 34.16 30C34.16 26.0533 33.7867 22.9067 33.04 20.56C32.2933 18.2133 31.2533 16.5067 29.92 15.44C28.64 14.3733 27.1467 13.84 25.44 13.84C23.7333 13.84 22.2133 14.3733 20.88 15.44C19.6 16.5067 18.56 18.2133 17.76 20.56C17.0133 22.9067 16.64 26.0533 16.64 30C16.64 33.8933 17.0133 37.04 17.76 39.44C18.56 41.7867 19.6 43.4933 20.88 44.56C22.2133 45.6267 23.7333 46.16 25.44 46.16ZM81.4056 59.12C76.179 59.12 71.619 58.08 67.7256 56C63.8856 53.92 60.8723 50.8267 58.6856 46.72C56.5523 42.6133 55.4856 37.5467 55.4856 31.52C55.4856 25.0133 56.739 19.4933 59.2456 14.96C61.8056 10.3733 65.299 6.88 69.7256 4.48C74.2056 2.08 79.379 0.879996 85.2456 0.879996C88.3923 0.879996 91.4056 1.25333 94.2856 2C97.219 2.69333 99.699 3.68 101.726 4.96L95.9656 16.32C94.3656 15.2 92.6856 14.4533 90.9256 14.08C89.219 13.6533 87.459 13.44 85.6456 13.44C81.3256 13.44 77.859 14.7467 75.2456 17.36C72.6856 19.9733 71.4056 23.7867 71.4056 28.8C71.4056 29.7067 71.4056 30.6667 71.4056 31.68C71.459 32.64 71.5656 33.6267 71.7256 34.64L67.7256 31.36C68.7923 29.3867 70.0723 27.7333 71.5656 26.4C73.1123 25.0667 74.9256 24.0533 77.0056 23.36C79.139 22.6667 81.5123 22.32 84.1256 22.32C87.6456 22.32 90.8456 23.0667 93.7256 24.56C96.659 26 99.0056 28.0533 100.766 30.72C102.526 33.3333 103.406 36.4267 103.406 40C103.406 43.8933 102.419 47.28 100.446 50.16C98.4723 52.9867 95.8323 55.2 92.5256 56.8C89.219 58.3467 85.5123 59.12 81.4056 59.12ZM80.4456 47.84C81.939 47.84 83.2456 47.5467 84.3656 46.96C85.539 46.3733 86.4456 45.5467 87.0856 44.48C87.7256 43.4133 88.0456 42.16 88.0456 40.72C88.0456 38.5867 87.3256 36.88 85.8856 35.6C84.499 34.32 82.659 33.68 80.3656 33.68C78.819 33.68 77.459 33.9733 76.2856 34.56C75.1656 35.1467 74.259 35.9733 73.5656 37.04C72.9256 38.1067 72.6056 39.36 72.6056 40.8C72.6056 42.1867 72.9256 43.4133 73.5656 44.48C74.2056 45.4933 75.1123 46.32 76.2856 46.96C77.459 47.5467 78.8456 47.84 80.4456 47.84Z" fill="#1178B2" fill-opacity="0.5"/>
</svg>
